<?xml version="1.0" encoding="UTF-8" standalone="no"?>
<!-- Created with Inkscape (http://www.inkscape.org/) -->

<svg
   xmlns:dc="http://purl.org/dc/elements/1.1/"
   xmlns:cc="http://creativecommons.org/ns#"
   xmlns:rdf="http://www.w3.org/1999/02/22-rdf-syntax-ns#"
   xmlns:svg="http://www.w3.org/2000/svg"
   xmlns="http://www.w3.org/2000/svg"
   version="1.1"
   width="600"
   height="300"
   id="svg2">
<rect width="600" height="300" id="red" style="fill:#de0000"/>
<rect width="600" height="75" y="112.5" id="green" style="fill:#009933"/>
<path d="m 75.013,14.753 -0.938,2.893 -2.411,7.42 -7.794,0 -3.054,0 2.464,1.795 6.321,4.58 -2.411,7.393 -0.937,2.893 2.464,-1.794 6.294,-4.554 6.294,4.554 2.464,1.794 -0.937,-2.893 -2.411,-7.419 6.294,-4.553 2.464,-1.795 -3.026,0 -7.794,0 -2.411,-7.42 z m 0,6.402 1.688,5.196 0.214,0.697 0.724,0 5.437,0 -4.393,3.187 -0.589,0.429 0.241,0.696 1.688,5.196 -4.42,-3.214 -0.589,-0.429 -0.589,0.429 -4.42,3.214 1.688,-5.196 0.214,-0.696 -0.563,-0.429 -4.393,-3.187 5.437,0 0.724,0 0.214,-0.697 c 0.562333,-1.732 1.124667,-3.464 1.687,-5.196 z" id="star" style="fill:#ffd700" />
<path d="m 75.0625,44.75 c 10.623,8.189 18.99925,15.427 20.15625,28.125 1.319511,5.356526 -0.131895,10.406771 -3.1875,14.15625 l -26,-25.5625 7.875,-7.03125 -11.46875,-3.125 -13.1875,13.09375 7,7.03125 5.625,-5.875 c 8.304755,8.581383 16.602074,17.1689 24.90625,25.75 -6.641545,3.504713 -15.898382,2.859017 -23.90625,-5.625 l -1.96875,2.03125 -1.46875,-0.25 -1.65625,1.6875 L 55.90625,89 c -0.999,4.577 -7.045,6.25975 -9.625,9.96875 -3.34,4.133 1.29525,7.73375 4.40625,4.34375 2.777,-2.179 6.42375,-9.92975 9.96875,-9.59375 L 60.34375,91.75 61.5,90.90625 c 9.378382,10.73997 21.738748,11.49192 30.4375,5.75 2.612607,2.699706 5.231152,5.39412 7.84375,8.09375 2.806,-0.638 4.32175,-1.71875 5.21875,-4.96875 l -7.9375,-7.8125 c 3.39339,-4.237074 5.52095,-9.900039 5.46875,-16.59375 C 102.45025,65.007 91.8725,50.825 75.0625,44.75 z" id="hs" style="fill:#ffd700" /></svg>